<svg width="104.401" height="71.301" viewBox="0 0 104.401 71.301" xmlns="http://www.w3.org/2000/svg"><g id="svgGroup" stroke-linecap="round" fill-rule="evenodd" font-size="9pt" stroke="#000" stroke-width="0.25mm" fill="#000" style="stroke:#000;stroke-width:0.25mm;fill:#000"><path d="M 99.5 70.8 L 60.9 70.8 A 5.98 5.98 0 0 1 59.041 70.523 A 4.975 4.975 0 0 1 57.1 69.35 A 4.855 4.855 0 0 1 55.624 66.162 A 6.595 6.595 0 0 1 55.6 65.6 Q 55.6 60.3 58.5 56.05 A 33.2 33.2 0 0 1 63.521 50.303 A 39.967 39.967 0 0 1 65.95 48.25 Q 70.5 44.7 75.6 41.5 Q 80.7 38.3 85.25 35.15 A 44.224 44.224 0 0 0 89.271 32.029 A 32.406 32.406 0 0 0 92.7 28.55 A 12.783 12.783 0 0 0 94.806 25.115 A 10.887 10.887 0 0 0 95.6 21 A 13.006 13.006 0 0 0 94.767 16.277 A 11.816 11.816 0 0 0 92.05 12.15 A 10.046 10.046 0 0 0 88.663 9.987 Q 85.238 8.6 79.8 8.6 A 43.533 43.533 0 0 0 74.316 8.933 A 35.192 35.192 0 0 0 70.4 9.65 A 52.407 52.407 0 0 0 66.085 10.893 A 40.281 40.281 0 0 0 62.7 12.2 A 0.322 0.322 0 0 1 62.639 12.245 Q 62.481 12.34 62.016 12.495 A 12.544 12.544 0 0 1 62 12.5 A 3.779 3.779 0 0 1 60.819 12.7 A 3.602 3.602 0 0 1 60.8 12.7 A 3.583 3.583 0 0 1 58.169 11.621 A 4.319 4.319 0 0 1 58.1 11.55 Q 57 10.4 57 8.8 Q 57 6.535 58.806 5.337 A 5.328 5.328 0 0 1 59.2 5.1 Q 63.4 3 68.95 1.5 A 42.345 42.345 0 0 1 75.621 0.288 A 55.892 55.892 0 0 1 81.4 0 A 27.799 27.799 0 0 1 88.577 0.899 A 24.1 24.1 0 0 1 93 2.55 A 21.244 21.244 0 0 1 100.277 8.273 A 20.824 20.824 0 0 1 101.3 9.65 Q 104.4 14.2 104.4 20.3 Q 104.4 25.4 101.9 29.75 A 31.998 31.998 0 0 1 96.697 36.475 A 36.986 36.986 0 0 1 95.35 37.75 Q 91.3 41.4 86.6 44.65 A 344.633 344.633 0 0 1 78.528 50.07 A 312.293 312.293 0 0 1 77.4 50.8 Q 72.9 53.7 69.5 56.55 Q 66.1 59.4 64.7 62.3 L 99.5 62.3 A 4.271 4.271 0 0 1 101.398 62.718 A 4.28 4.28 0 0 1 102.55 63.55 A 4.143 4.143 0 0 1 103.8 66.544 A 5.147 5.147 0 0 1 103.8 66.6 A 4.249 4.249 0 0 1 103.488 68.25 A 3.988 3.988 0 0 1 102.55 69.6 Q 101.3 70.8 99.5 70.8 Z M 1.1 63.9 L 16.6 45.6 L 1.1 26.7 A 5.632 5.632 0 0 1 0.378 25.524 A 4.183 4.183 0 0 1 0 23.8 A 5.468 5.468 0 0 1 0.168 22.407 A 3.879 3.879 0 0 1 1.3 20.5 A 4.49 4.49 0 0 1 4.251 19.306 A 5.834 5.834 0 0 1 4.5 19.3 A 5.36 5.36 0 0 1 5.977 19.492 A 3.81 3.81 0 0 1 8.1 21 L 22.1 38.3 L 36 21 A 3.877 3.877 0 0 1 38.842 19.338 A 5.614 5.614 0 0 1 39.5 19.3 A 5.242 5.242 0 0 1 41.103 19.535 A 4.314 4.314 0 0 1 42.8 20.55 A 4.061 4.061 0 0 1 44.099 23.489 A 4.914 4.914 0 0 1 44.1 23.6 A 4.407 4.407 0 0 1 43.335 26.072 A 5.596 5.596 0 0 1 43.1 26.4 L 27.3 45 L 42.9 63.8 A 4.48 4.48 0 0 1 43.525 64.738 A 3.924 3.924 0 0 1 43.75 65.3 A 6.548 6.548 0 0 1 43.903 65.872 Q 43.964 66.156 43.986 66.408 A 3.242 3.242 0 0 1 44 66.7 A 4.873 4.873 0 0 1 43.088 69.53 A 6.201 6.201 0 0 1 42.85 69.85 A 3.691 3.691 0 0 1 40.726 71.159 A 5.826 5.826 0 0 1 39.4 71.3 A 4.306 4.306 0 0 1 37.563 70.918 Q 36.676 70.506 36.011 69.649 A 5.385 5.385 0 0 1 35.9 69.5 L 21.7 52.5 L 8.3 69.3 A 6.469 6.469 0 0 1 8.277 69.332 Q 6.781 71.3 4.4 71.3 A 4.712 4.712 0 0 1 2.922 71.078 A 3.913 3.913 0 0 1 1.3 70.05 A 4.197 4.197 0 0 1 0.223 67.959 A 6.109 6.109 0 0 1 0.1 66.7 A 4.407 4.407 0 0 1 0.866 64.229 A 5.596 5.596 0 0 1 1.1 63.9 Z" vector-effect="non-scaling-stroke"/></g></svg>